<?xml version="1.0" standalone="no"?>
<!DOCTYPE svg PUBLIC "-//W3C//DTD SVG 20010904//EN"
 "http://www.w3.org/TR/2001/REC-SVG-20010904/DTD/svg10.dtd">
<svg version="1.0" xmlns="http://www.w3.org/2000/svg"
 width="700.000000pt" height="700.000000pt" viewBox="0 0 700.000000 700.000000"
 preserveAspectRatio="xMidYMid meet">
<metadata>
Created by potrace 1.11, written by Peter Selinger 2001-2013
</metadata>
<g transform="translate(0.000000,700.000000) scale(0.100000,-0.100000)"
fill="#000000" stroke="none">
<path d="M2107 6479 c-274 -31 -498 -125 -562 -233 -29 -50 -32 -94 -10 -195
47 -225 89 -528 101 -722 l7 -116 -76 -52 c-80 -56 -144 -128 -176 -202 -26
-57 -41 -157 -35 -217 l6 -47 -87 -44 c-131 -66 -336 -208 -456 -314 -349
-312 -570 -736 -617 -1184 l-8 -83 65 69 c85 88 161 143 275 197 297 141 732
150 1095 22 123 -43 339 -156 479 -251 67 -45 208 -141 314 -212 106 -72 236
-152 288 -178 171 -84 367 -137 503 -137 93 1 145 13 239 57 64 30 80 34 93
23 26 -21 17 -49 -31 -95 -57 -56 -187 -121 -279 -140 -136 -28 -430 -12 -630
36 -140 33 -311 93 -545 191 -420 177 -473 198 -583 232 -183 57 -272 71 -452
70 -139 0 -176 -4 -280 -28 -147 -34 -275 -80 -422 -153 -133 -65 -127 -50
-88 -245 74 -374 276 -790 507 -1046 27 -29 48 -56 48 -60 0 -11 -64 -48 -285
-167 -305 -164 -438 -254 -471 -316 -78 -152 392 -291 711 -210 177 45 319
122 436 237 l65 65 107 -65 c514 -315 1128 -486 1812 -503 432 -11 811 37
1255 157 300 81 511 162 763 293 l143 74 87 -53 c221 -133 493 -190 796 -165
152 12 299 39 401 72 160 51 320 152 354 223 15 32 15 38 2 65 -32 60 -160
115 -416 177 -258 62 -319 79 -450 131 -63 25 -117 47 -119 49 -2 2 37 47 87
101 121 130 188 215 281 353 286 427 443 990 402 1445 -27 294 -76 483 -176
690 -53 108 -97 170 -238 331 -139 159 -116 222 120 335 145 70 235 146 280
236 47 97 43 279 -9 423 -24 65 -63 120 -85 120 -8 0 -44 -31 -78 -68 -80 -87
-138 -116 -296 -148 -72 -15 -145 -37 -173 -52 -112 -61 -186 -196 -186 -344
0 -47 -15 -78 -36 -78 -9 0 -41 16 -72 35 -32 19 -99 46 -150 61 -78 22 -108
26 -175 22 -100 -6 -159 -28 -296 -109 -129 -76 -166 -89 -257 -89 -61 0 -78
-4 -94 -20 -26 -26 -25 -44 4 -107 72 -153 266 -272 488 -298 69 -8 148 6 292
51 186 59 253 39 295 -90 65 -195 48 -406 -44 -561 -73 -124 -214 -214 -349
-223 -88 -5 -155 9 -254 54 -189 86 -438 256 -832 569 -193 153 -334 259 -445
336 -203 140 -473 283 -663 349 -74 27 -92 36 -87 49 15 38 27 142 21 184 -10
62 -56 124 -113 149 -62 27 -140 21 -214 -18 -30 -16 -58 -31 -63 -33 -25 -10
19 617 65 921 25 168 25 187 5 226 -47 91 -189 157 -401 187 -106 16 -315 18
-428 4z m-333 -535 c43 -13 86 -24 95 -24 33 0 39 -18 55 -175 17 -170 49
-735 42 -742 -6 -7 -125 24 -168 43 l-36 16 -6 82 c-3 44 -10 158 -15 251 -9
139 -52 459 -76 564 -5 20 -3 22 12 16 10 -4 53 -19 97 -31z m1624 -2391 c120
-57 187 -231 133 -348 -21 -47 -86 -108 -137 -130 -144 -60 -321 74 -332 251
-6 96 23 167 93 219 63 49 151 52 243 8z"/>
</g>
</svg>
